<?xml version="1.0" encoding="utf-8"?>
<svg xmlns="http://www.w3.org/2000/svg" fill="none" viewBox="0 0 20 20">
  <path clip-rule="evenodd" d="M10 20c5.523 0 10-4.477 10-10S15.523 0 10 0 0 4.477 0 10s4.477 10 10 10Zm-1.525-7.642v.214h2.429v-.214c0-.31.047-.572.142-.784.095-.216.236-.408.422-.575.19-.167.428-.327.713-.48.365-.2.682-.419.952-.66a2.66 2.66 0 0 0 .639-.84c.152-.317.228-.683.228-1.098 0-.63-.175-1.163-.525-1.599-.35-.435-.83-.765-1.442-.988C11.425 5.111 10.729 5 9.946 5c-.715 0-1.369.113-1.962.34a3.18 3.18 0 0 0-1.43 1.034C6.195 6.841 6.01 7.44 6 8.172h2.623c.004-.244.066-.451.188-.622.126-.174.285-.308.48-.402.197-.094.408-.141.632-.141.224 0 .428.043.61.13.186.084.333.204.44.36.106.158.159.339.159.544 0 .213-.055.403-.165.57a1.97 1.97 0 0 1-.45.47c-.187.143-.4.284-.64.424-.3.177-.555.374-.764.59-.209.212-.368.495-.479.847-.106.351-.16.823-.16 1.416Zm.205 3.245c.293.265.644.397 1.055.397.262 0 .504-.061.724-.183a1.5 1.5 0 0 0 .542-.491c.14-.206.213-.434.216-.685-.003-.369-.154-.684-.45-.946a1.502 1.502 0 0 0-1.032-.397c-.41 0-.762.133-1.055.397a1.212 1.212 0 0 0-.428.946c-.004.377.139.697.428.962Z" fill="#4b5563" fill-rule="evenodd"/>
</svg>