<svg xmlns="http://www.w3.org/2000/svg" viewBox="0 0 350 350">
    <circle fill="#12161c" cx="175" cy="175" r="175"/>
    <g transform="translate(49, 30)">
        <path fill="#fff" d="M152 107c9-5 21-11 32-21 3 5 3 10 2 14l-5 6c-2 2-5 3-9 4-6 1-13 1-20-3m1 47 13 7c-25 14-32 39-40 65-8-26-15-51-40-65l13-7a6 6 0 0 0 3-6c-1-24 6-34 14-41 3-2 7-3 10-3s7 1 10 3c8 7 15 17 14 41a6 6 0 0 0 3 6zM126 0a101 101 0 0 1 73 31c8 0 19-9 24-17-9 30-51 66-80 80-5-4-11-6-17-6s-12 2-17 6C80 80 38 44 29 14c5 8 16 17 24 17A114 114 0 0 1 86 8c12-5 26-8 40-8m-26 107c-9-5-21-11-32-21-3 5-3 10-2 14l5 6c2 2 5 3 9 4 6 1 13 1 20-3"/>
        <path fill="#fff" d="M197 75c7-6 12-14 17-20l2 4c8 15 11 30 11 47v26l1 14c0 34 7 68 24 99l-35-28-24 40-26-24-41 67-41-67-26 24-24-40-35 28c17-31 24-65 24-99l1-14v-26c0-17 3-32 11-47l2-4c5 6 10 14 17 20l-2 4c-4 8-5 17-2 26 2 6 5 10 10 14 4 3 10 6 15 7l11 1-1 15-33 19 25 14a42 42 0 0 1 6 4c21 19 33 74 42 101 9-27 21-82 42-101a42 42 0 0 1 6-4l25-14-33-19-1-15 11-1c5-1 11-4 15-7 5-4 8-8 10-14 3-9 2-18-2-26l-2-4z"/>
    </g>
</svg>