<svg version="1.0" xmlns="http://www.w3.org/2000/svg" xmlns:xlink="http://www.w3.org/1999/xlink" viewBox="80 30 170 175" xml:space="preserve">
  <g>
    <path d="M78 117a86 86 0 1 1 86 86c-48 0-86-39-86-86z" fill="#5865f2"/>
    <path d="M202 82c-7-3-14-6-22-7l-3 6h-26l-3-6c-8 1-15 4-22 7a94 94 0 0 0-17 63c9 6 18 11 28 14l6-10-9-4 2-2c18 9 38 9 56 0l2 2-9 5 6 9c10-3 20-8 28-14 2-24-4-45-17-63zm-56 50c-6 0-10-5-10-11s4-11 10-11c5 0 10 5 10 11s-5 11-10 11zm36 0c-5 0-9-5-9-11s4-11 9-11c6 0 10 5 10 11s-4 11-10 11z" fill="#fff"/>
  </g>
</svg>