<svg xmlns="http://www.w3.org/2000/svg" viewBox="0 0 24 24">
    <circle fill="#12161c" cx="12" cy="12" r="17"/>
    <g transform="translate(-4.5 5) scale(1.03)">
        <path fill="#fff" opacity="0.8" d="M12 6c1.1 0 2 .9 2 2s-.9 2-2 2-2-.9-2-2 .9-2 2-2m0 10c2.7 0 5.8 1.3 6 2H6c.2-.7 3.3-2 6-2m0-12a4 4 0 100 8 4 4 0 000-8zm0 10c-2.7 0-8 1.3-8 4v2h16v-2c0-2.7-5.3-4-8-4z" />
    </g>
    <g transform="translate(4 -2)">
        <path fill="#fff" d="m 11 18 h 2 v -2 h -2 v 2 z m 1 -16 z z m 0 4 c -2.21 0 -4 1.79 -4 4 h 2 c 0 -1.1 0.9 -2 2 -2 s 2 0.9 2 2 c 0 2 -3 1.75 -3 5 h 2 c 0 -2.25 3 -2.5 3 -5 c 0 -2.21 -1.79 -4 -4 -4 z" />
    </g>
</svg>