<svg xmlns="http://www.w3.org/2000/svg" viewBox="1 3 194 194">
  <circle fill="#22335b" cx="97" cy="97" r="97" />
  <path fill="#fff" d="M66 44h-1a33 33 0 0 1 9 0 40 40 0 0 1 21 14l2 2h2a56 56 0 0 1 32 4l7 4 1 3c1 5 0 8-1 11v3l2 2c3 0 5-4 6-9l1-2 1 1a39 39 0 0 1 10 19v1l-1-1a17 17 0 0 0-5-5c-3-2-7-3-16-4a68 68 0 0 1-19-2c-8-3-12-7-22-20a92 92 0 0 0-9-11 34 34 0 0 0-20-10z"/>
  <path fill="#fff" d="M141 57a22 22 0 0 1 2-11v2l-1 9c1 4 1 5 6 10a162 162 0 0 1 6 6l2 2-2-1-8-6h-1l-1 4-2 10v-7c0-9-1-11-7-14a75 75 0 0 0-8-4l8 2 5 1 1-3zM70 72a35 35 0 0 1-6-22v-2h1l6 3c4 2 6 5 8 14l1 6 4 7c2 2 1 2-2 2s-9-4-12-8zm65 43c-19-8-26-15-26-26v-4l1 2c4 3 9 4 21 6a87 87 0 0 1 16 3c12 4 19 13 21 24v12a25 25 0 0 1-4 7v-1c0-4-2-8-6-11a80 80 0 0 0-23-12zm-14 4-1-5v-1l1 1 3 6 1 5-1 6a18 18 0 0 1-4 6 24 24 0 0 1-15 7l-8 1-17 2-1 1 5-4 15-3 9-2c10-3 15-11 13-21z"/>
  <path fill="#fff" d="M131 135a23 23 0 0 1-2-17v-1l2 1 10 6a51 51 0 0 1 16 11l5 13v11a30 30 0 0 1-17 21 8 8 0 0 1 1-3c2-5 3-9 1-15a64 64 0 0 0-8-14 95 95 0 0 1-8-13zm-75 30a54 54 0 0 1 25-12 37 37 0 0 1 13 1 22 22 0 0 1 12 8c3 3 4 6 5 13l1 6c1 4 2 7 4 8 4 3 9 3 14 1l2-1-4 3a14 14 0 0 1-8 2c-4 0-8-3-12-8l-3-6c-4-8-5-11-9-13a12 12 0 0 0-12-2 8 8 0 0 0-3 12l6 3c4 1 7-2 7-6 0-2-1-4-3-5-4-1-7 0-7 3 0 2 1 3 2 3 1 1 1 1 0 0-3 0-4-4-1-6 3-3 8-2 10 2l1 7c-2 5-7 7-12 6l-8-6c-7-8-10-9-20-10l-2-1 2-2z"/>
  <path fill="#fff" d="m3 4 61 75c2 2 1 4-1 5l-6 2-5-2-13-21-13-19 12 22a175 175 0 0 1 10 19l-2 4c-2 3-4 6-5 13-1 8-3 14-11 23a41 41 0 0 0-6 9 25 25 0 0 0-1 18l5 9 4 8h3c9-2 16-6 20-10 2-2 3-4 3-7l-1-5c-1-2-3-4-7-6-5-4-8-7-8-11-1-4 0-6 3-12 3-7 4-9 4-16l2-7c2-2 3-2 6-2 5-1 8-2 11-5a9 9 0 0 0 3-7v-3l-1-1L0 0l3 4zm31 143c1-2 1-5-1-6s-4-1-4 1v1l1 2v3c1 1 3 0 4-1zm41-53a9 9 0 0 0-6 6l1 5c1 2 2 2 5 2 5 0 10-2 10-5 1-3-1-6-4-7-2-1-5-2-6-1zm6 5c1-1 1-3-1-3-3-2-7-1-7 2l4 2c2 1 3 0 4-1z" fill-rule="evenodd" clip-rule="evenodd"/>
</svg>