<svg xmlns="http://www.w3.org/2000/svg" viewBox="0 -960 960 960">
  <path fill="#fff" d="M226-262q59-40 121-61t133-21q71 0 133 21 63 21 122 61 41-50 60-104 18-54 18-114 0-141-96-237t-237-96q-141 0-237 96t-96 237q0 60 19 114t60 104Zm254-185q-58 0-98-40t-40-98q0-58 40-98t98-40 98 40q40 40 40 98 0 59-40 99-40 39-98 39Zm0 367q-83 0-156-31t-128-86q-54-55-85-128-31-72-31-155t32-156q31-73 85-127 55-54 128-85 72-32 155-32t156 32q73 31 127 85t86 127q31 73 31 156t-31 155-86 128q-54 54-127 86T480-80Z"/>
</svg>