<svg xmlns="http://www.w3.org/2000/svg" viewBox="3 3 42 42">
  <path fill="#0550c1" d="M24 44q-4.2 0-7.8-1.6-3.7-1.5-6.4-4.3-2.7-2.7-4.3-6.3Q4 28 4 23.9t1.6-7.8Q7 12.4 9.8 9.7t6.3-4.2Q19.8 4 24 4t7.8 1.5q3.7 1.5 6.4 4.3 2.7 2.6 4.3 6.3 1.5 3.6 1.5 7.8t-1.6 7.9Q41 35.5 38.3 38t-6.3 4.3Q28.2 44 24 44Zm0-2.9q1.8-1.8 3-4.1 1.1-2.4 1.9-5.6h-9.7q.7 3 1.9 5.5 1.1 2.4 2.9 4.2Zm-4.3-.6q-1.2-1.9-2.1-4.1-.9-2.2-1.5-5H8.6Q10.5 35 13 37q2.5 2 6.8 3.5Zm8.6 0q3.6-1.2 6.5-3.5t4.6-5.5h-7.5q-.6 2.6-1.5 4.8-.8 2.3-2.1 4.2Zm-20.7-12h8l-.2-2.5V21.7l.2-2.2h-8l-.5 2.1Q7 22.6 7 24l.1 2.3.5 2.2Zm11 0h10.8l.3-2.6v-4q0-1-.3-2.4H18.6l-.2 2.5v3.9q0 1 .3 2.6Zm13.8 0h8q.4-1.2.5-2.3L41 24l-.1-2.3q-.1-1-.5-2.1h-8l.2 2.7.1 1.7v2l-.3 2.6Zm-.5-12h7.5q-1.6-3.4-4.5-5.7-2.9-2.4-6.6-3.3 1.2 1.9 2 4t1.6 5Zm-12.7 0h9.7q-.5-2.6-1.8-5.1T24 7q-1.6 1.4-2.7 3.5-1.1 2.3-2.1 6Zm-10.6 0h7.6q.5-2.7 1.4-4.8.8-2.1 2.1-4.1-3.7.9-6.5 3.2t-4.6 5.7Z"/>
</svg>